<?xml version="1.0" encoding="utf-8"?>
<!-- Generator: Adobe Illustrator 16.0.3, SVG Export Plug-In . SVG Version: 6.00 Build 0)  -->
<!DOCTYPE svg PUBLIC "-//W3C//DTD SVG 1.1//EN" "http://www.w3.org/Graphics/SVG/1.1/DTD/svg11.dtd">
<svg version="1.1" id="Layer_1" xmlns="http://www.w3.org/2000/svg" xmlns:xlink="http://www.w3.org/1999/xlink" x="0px" y="0px"
	 width="2000px" height="2000px" viewBox="0 0 2000 2000" enable-background="new 0 0 2000 2000" xml:space="preserve">
<g>
	<defs>
		<rect id="SVGID_1_" width="2000" height="2000"/>
	</defs>
	<clipPath id="SVGID_2_">
		<use xlink:href="#SVGID_1_"  overflow="visible"/>
	</clipPath>
	<g clip-path="url(#SVGID_2_)">
		<defs>
			<rect id="SVGID_3_" width="2000" height="2000"/>
		</defs>
		<clipPath id="SVGID_4_">
			<use xlink:href="#SVGID_3_"  overflow="visible"/>
		</clipPath>
		<path clip-path="url(#SVGID_4_)" fill="#005D98" d="M1399.779,1855.799c0,6.229-0.696,11.745-2.088,16.549
			c-1.392,4.805-3.578,8.846-6.561,12.126c-2.981,3.28-6.775,5.764-11.38,7.454c-4.606,1.688-10.122,2.534-16.549,2.534
			c-7.156,0-13.104-0.878-17.841-2.635c-4.738-1.754-8.517-4.322-11.33-7.701c-2.818-3.379-4.789-7.521-5.914-12.425
			c-1.128-4.902-1.689-10.501-1.689-16.798v-10.336h23.455v10.138c0,2.783,0.182,5.235,0.547,7.355
			c0.363,2.122,1.027,3.893,1.989,5.317c0.959,1.426,2.285,2.484,3.976,3.181c1.689,0.695,3.858,1.043,6.51,1.043
			c2.584,0,4.721-0.396,6.41-1.193c1.689-0.794,3.032-1.888,4.025-3.278c0.994-1.393,1.706-3.064,2.137-5.02
			s0.646-4.091,0.646-6.411v-1.192c0-2.849-0.149-5.417-0.447-7.703s-0.861-4.356-1.689-6.211c-0.828-1.856-1.954-3.563-3.379-5.12
			c-1.426-1.556-3.266-3.064-5.517-4.523l-14.313-9.241c-4.971-3.246-8.962-6.346-11.977-9.294
			c-3.016-2.948-5.336-6.046-6.959-9.293c-1.624-3.246-2.716-6.774-3.278-10.586c-0.564-3.81-0.846-8.199-0.846-13.17v-2.683
			c0-12.987,3.098-22.478,9.294-28.476c6.193-5.997,15.157-8.996,26.886-8.996c12.19,0,21.152,3.147,26.886,9.441
			c5.729,6.296,8.598,15.771,8.598,28.428v11.928h-23.557l-0.1-13.219c0-2.055-0.232-3.927-0.696-5.617
			c-0.463-1.688-1.158-3.146-2.086-4.373c-0.93-1.226-2.172-2.169-3.729-2.833c-1.557-0.661-3.429-0.993-5.615-0.993
			c-2.32,0-4.273,0.382-5.864,1.142c-1.591,0.763-2.866,1.839-3.826,3.23c-0.961,1.392-1.657,3.05-2.087,4.971
			c-0.433,1.922-0.614,4.009-0.547,6.261l0.099,2.883c0.065,3.91,1.01,7.621,2.833,11.132c1.822,3.513,4.555,6.33,8.2,8.449
			l12.821,7.554c4.704,2.849,8.613,5.813,11.729,8.895c3.114,3.082,5.599,6.378,7.454,9.892c1.854,3.512,3.181,7.289,3.976,11.33
			c0.795,4.042,1.26,8.415,1.393,13.12V1855.799z"/>
		<polygon clip-path="url(#SVGID_4_)" fill="#005D98" points="1248.702,1892.475 1248.702,1741.299 1312.611,1741.299 
			1312.611,1764.158 1272.258,1764.158 1272.258,1804.114 1305.753,1804.114 1305.753,1826.976 1272.258,1826.976 
			1272.258,1869.714 1312.611,1869.714 1312.611,1892.475 		"/>
		<rect x="1202.087" y="1741.299" clip-path="url(#SVGID_4_)" fill="#005D98" width="23.556" height="151.176"/>
		<path clip-path="url(#SVGID_4_)" fill="#005D98" d="M1183.103,1802.524c0,7.29-0.862,13.368-2.584,18.238
			c-1.724,4.87-4.192,8.765-7.405,11.679c-3.214,2.917-7.124,4.969-11.727,6.162c-4.607,1.193-9.791,1.789-15.557,1.789h-10.635
			v52.082h-23.556v-151.176h34.688c5.566,0,10.602,0.631,15.108,1.888c4.505,1.26,8.364,3.331,11.579,6.212
			c3.213,2.883,5.697,6.677,7.454,11.381c1.756,4.705,2.634,10.536,2.634,17.493V1802.524z M1159.447,1778.272
			c0-4.638-0.962-8.15-2.883-10.536c-1.922-2.385-5.301-3.578-10.137-3.578h-11.232v53.573h10.337c5.102,0,8.697-1.159,10.783-3.479
			c2.088-2.318,3.132-6.227,3.132-11.728V1778.272z"/>
		<path clip-path="url(#SVGID_4_)" fill="#005D98" d="M1038.686,1741.198h31.807l25.841,151.275h-23.854l-3.876-26.735h-28.227
			l-3.777,26.735h-23.755L1038.686,1741.198z M1043.556,1844.17h21.966l-10.933-76.532L1043.556,1844.17z"/>
		<path clip-path="url(#SVGID_4_)" fill="#005D98" d="M930.447,1892.474v-151.175h36.378c6.227,0,11.644,0.713,16.25,2.137
			c4.605,1.427,8.415,3.712,11.431,6.858c3.015,3.148,5.268,7.173,6.759,12.076c1.491,4.904,2.236,10.834,2.236,17.791v16.3
			c0,6.429-1.426,12.126-4.274,17.095c-2.85,4.971-6.527,9.112-11.033,12.426c1.988,1.392,3.679,2.85,5.069,4.373
			c1.391,1.524,2.567,3.313,3.529,5.366c0.96,2.056,1.722,4.491,2.286,7.306c0.562,2.816,1.01,6.213,1.342,10.188l1.69,20.872
			c0.33,4.11,1.075,7.621,2.235,10.536c1.159,2.917,2.303,5.534,3.43,7.852h-24.451c-0.265-0.528-0.63-1.374-1.094-2.533
			s-0.944-2.534-1.44-4.124c-0.497-1.592-0.962-3.331-1.392-5.22c-0.431-1.888-0.745-3.826-0.944-5.813l-1.789-21.071
			c-0.332-3.777-0.978-6.94-1.938-9.492c-0.962-2.55-2.105-4.588-3.43-6.112c-1.325-1.523-2.799-2.601-4.422-3.231
			c-1.625-0.628-3.23-0.91-4.821-0.845h-8.05v58.442H930.447z M979.945,1779.863c0-3.182-0.283-5.781-0.845-7.802
			c-0.563-2.021-1.409-3.628-2.534-4.821c-1.128-1.193-2.502-2.004-4.125-2.436c-1.624-0.43-3.529-0.646-5.715-0.646h-12.722v47.012
			h12.522c2.253,0,4.225-0.38,5.915-1.142c1.689-0.762,3.081-1.806,4.174-3.132c1.094-1.325,1.922-2.883,2.485-4.671
			c0.562-1.789,0.845-3.711,0.845-5.766V1779.863z"/>
		<polygon clip-path="url(#SVGID_4_)" fill="#005D98" points="847.952,1892.475 847.952,1741.299 911.86,1741.299 911.86,1764.158 
			871.507,1764.158 871.507,1804.114 905.002,1804.114 905.002,1826.976 871.507,1826.976 871.507,1869.714 911.86,1869.714 
			911.86,1892.475 		"/>
		<polygon clip-path="url(#SVGID_4_)" fill="#005D98" points="749.851,1892.475 749.851,1741.299 773.506,1741.299 
			773.506,1804.811 801.435,1804.811 801.435,1741.299 824.991,1741.299 824.991,1892.475 801.435,1892.475 801.435,1827.671 
			773.506,1827.671 773.506,1892.475 		"/>
		<polygon clip-path="url(#SVGID_4_)" fill="#005D98" points="712.28,1764.159 712.28,1892.475 688.625,1892.475 688.625,1764.159 
			663.876,1764.159 663.876,1741.299 737.029,1741.299 737.029,1764.159 		"/>
		<path clip-path="url(#SVGID_4_)" fill="#005D98" d="M874.997,153.912c1.863-0.619,3.799-1.081,5.825-1.192
			c1.762-0.096,3.532-0.14,5.305-0.143c-57.503-18.055-116.159-33.337-176.187-33.092c-71.752,0.293-146.981,26.231-190.089,83.588
			c-51.873,69.024-38.516,149.79-28.185,228.982c7.213,55.276,10.772,111.933-1.233,166.369
			c-12.005,54.437-41.246,106.926-88.095,137.136c15.308,15.085,30.615,30.169,45.924,45.253
			c2.267,2.235,33.212-50.114,35.977-54.709c26.825-44.566,45.915-93.913,54.917-145.19c9.065-51.628,5.174-101.431-3.551-152.706
			c-11.22-65.924-26.717-140.021,8.689-201.536c24.635-42.804,70.378-59.391,116.486-68.031c51.29-9.613,142.249-13.346,209.61-5.07
			C871.918,153.526,873.462,153.682,874.997,153.912"/>
		<path clip-path="url(#SVGID_4_)" fill="#2F9FD9" d="M493.798,1182.973c23.967-77.372,13.825-162.222-29.53-246.015
			c-32.564-62.948-72.143-103.438-76.496-107.794c-76.086-94.03-104.715-181.1-85.081-258.785
			c25.591-101.266,126.895-157.757,157.11-172.591l3.559,13.526c-49.562,33.033-129.813,87.729-140.437,176.442
			c-7.736,64.62,23.943,136.001,94.164,212.16c101.406,109.986,128.205,212.703,132.824,279.508
			c3.946,56.992-7.116,98.309-12.089,113.52L493.798,1182.973z"/>
		<path clip-path="url(#SVGID_4_)" fill="#005D98" d="M809.47,1449.442c-1.615,0.237-3.232,0.245-4.81-0.178
			c-4.341-1.166-7.164-5.216-9.704-8.924c-30.919-45.138-74.572-77.727-123.781-100.663
			c-101.706-47.402-222.648-48.819-312.425-121.883c-13.916-11.325-26.556-24.186-37.569-38.354
			c-80.467-103.52-79.358-253.464,3.896-355.093c5.038,7.831,10.074,15.662,15.11,23.492c1.601,2.49,3.255,5.146,3.328,8.105
			c0.082,3.332-1.849,6.335-3.652,9.139c-67.816,105.487-42.514,253.969,57.988,330.684
			c58.557,44.696,134.887,45.819,203.175,65.032c50.456,14.196,98.319,37.292,141.202,67.389
			c21.832,15.322,42.47,32.455,61.4,51.251c5.02,4.985,46.285,57.389,42.781,58.511c-10.484,3.357-20.968,6.716-31.451,10.073
			C813.172,1448.597,811.323,1449.171,809.47,1449.442"/>
		<path clip-path="url(#SVGID_4_)" fill="#005D98" d="M846.607,1543.269l51.906-21.439c0,0,48.522,241.477,381.398,21.439
			C1279.911,1543.269,963.96,1837.78,846.607,1543.269"/>
		<path clip-path="url(#SVGID_4_)" fill="#2F9FD9" d="M865.414,184.678c0,0-159.856,191.828-318.961,187.314l5.732,15.078
			C552.185,387.07,770.251,361.837,865.414,184.678"/>
		<path clip-path="url(#SVGID_4_)" fill="#2F9FD9" d="M1369.936,1517.991c-33.604-6.552-66.653-18.187-98.588-30.757
			c-55.984-22.036-111.82-47.341-171.625-53.924c-156.007-17.17-302.075,95.642-457.897,56.376
			c-69.747-17.577-111.194-63.806-134.789-129.366c-1.511-4.2-9.457-39.232-11.736-39.722c-0.009-0.002-58.678-10.533-58.678-10.533
			v5.268c0.607,114.688,91.737,205.803,201.777,222.9c71.851,11.164,147.213-2.729,215.984-24.099
			c66.35-20.619,131.074-50.68,201.272-55.477c68.864-4.705,136.157,15.66,200.007,39.261
			c31.732,11.729,65.068,22.481,98.908,27.656C1359.645,1522.947,1364.759,1520.397,1369.936,1517.991"/>
		<path clip-path="url(#SVGID_4_)" fill="#005D98" d="M1284.331,1500.776c312.034-142.172,482.46-495.709,385.819-835.366
			c-51.596-181.343-170.726-331.739-335.438-423.484c-164.714-91.744-276.464-115.461-453.236-89.118l-82.538-22.99
			c195.098-55.513,384.622-33.389,561.835,65.318c177.209,98.708,305.381,260.514,360.892,455.617
			c55.512,195.104,31.723,400.147-66.984,577.359c-69.658,125.062-170.744,225.697-292.78,293.609"/>
		
			<rect x="685.886" y="172.293" transform="matrix(0.4807 0.8769 -0.8769 0.4807 536.2553 -540.5313)" clip-path="url(#SVGID_4_)" fill="#005D98" width="77.208" height="20.388"/>
		
			<rect x="561.564" y="214.796" transform="matrix(0.5369 0.8436 -0.8436 0.5369 479.3679 -423.3516)" clip-path="url(#SVGID_4_)" fill="#005D98" width="127.516" height="20.386"/>
		
			<rect x="507.923" y="264.07" transform="matrix(0.5082 0.8613 -0.8613 0.5082 507.512 -340.1743)" clip-path="url(#SVGID_4_)" fill="#005D98" width="87.344" height="20.388"/>
		
			<rect x="454.621" y="440.544" transform="matrix(0.9886 0.1506 -0.1506 0.9886 73.3822 -67.3997)" clip-path="url(#SVGID_4_)" fill="#005D98" width="54.026" height="20.388"/>
		
			<rect x="390.232" y="529.993" transform="matrix(0.9872 0.1592 -0.1592 0.9872 91.747 -64.6484)" clip-path="url(#SVGID_4_)" fill="#005D98" width="118.109" height="20.389"/>
		
			<rect x="364.171" y="621.869" transform="matrix(0.9778 0.2094 -0.2094 0.9778 141.6943 -74.2122)" clip-path="url(#SVGID_4_)" fill="#005D98" width="114.303" height="20.386"/>
		
			<rect x="328.131" y="926.914" transform="matrix(0.3672 0.9302 -0.9302 0.3672 1119.146 301.0519)" clip-path="url(#SVGID_4_)" fill="#005D98" width="20.385" height="92.197"/>
		
			<rect x="362.337" y="1011.349" transform="matrix(0.385 0.9229 -0.9229 0.385 1219.2937 316.0135)" clip-path="url(#SVGID_4_)" fill="#005D98" width="20.385" height="123.081"/>
		
			<rect x="398.061" y="1110.318" transform="matrix(0.3709 0.9287 -0.9287 0.3709 1332.6936 349.6632)" clip-path="url(#SVGID_4_)" fill="#005D98" width="20.387" height="96.394"/>
		
			<rect x="526.848" y="1288.676" transform="matrix(0.8078 0.5895 -0.5895 0.8078 873.0059 -65.5649)" clip-path="url(#SVGID_4_)" fill="#005D98" width="20.387" height="34.457"/>
		
			<rect x="614.24" y="1313.605" transform="matrix(0.7915 0.6112 -0.6112 0.7915 962.4015 -97.7306)" clip-path="url(#SVGID_4_)" fill="#005D98" width="20.385" height="95.998"/>
		
			<rect x="699.688" y="1362.735" transform="matrix(0.7809 0.6246 -0.6246 0.7809 1038.2732 -133.7952)" clip-path="url(#SVGID_4_)" fill="#005D98" width="20.386" height="101.156"/>
		
			<rect x="935.624" y="1562.855" transform="matrix(0.0062 1 -1 0.0062 2563.0168 567.1177)" clip-path="url(#SVGID_4_)" fill="#005D98" width="121.119" height="20.387"/>
		
			<rect x="1085.485" y="1494.437" transform="matrix(1 0.0027 -0.0027 1 4.269 -2.9856)" clip-path="url(#SVGID_4_)" fill="#005D98" width="20.388" height="135.317"/>
		
			<rect x="1157.219" y="1539.16" transform="matrix(0.0111 0.9999 -0.9999 0.0111 2736.7693 331.3577)" clip-path="url(#SVGID_4_)" fill="#005D98" width="87.271" height="20.389"/>
		
			<rect x="759.298" y="196.72" transform="matrix(0.5092 0.8606 -0.8606 0.5092 568.5093 -583.1245)" clip-path="url(#SVGID_4_)" fill="#2F9FD9" width="72.493" height="20.385"/>
		
			<rect x="648.815" y="239.633" transform="matrix(0.4914 0.8709 -0.8709 0.4914 577.6631 -489.5546)" clip-path="url(#SVGID_4_)" fill="#2F9FD9" width="118.362" height="20.388"/>
		
			<rect x="562.529" y="289.41" transform="matrix(0.4735 0.8808 -0.8808 0.4735 591.4791 -390.2417)" clip-path="url(#SVGID_4_)" fill="#2F9FD9" width="119.233" height="20.387"/>
		
			<rect x="370.124" y="472.767" transform="matrix(0.9799 0.1993 -0.1993 0.9799 104.3571 -70.8452)" clip-path="url(#SVGID_4_)" fill="#2F9FD9" width="67.94" height="20.385"/>
		
			<rect x="325.383" y="563.283" transform="matrix(0.9746 0.2242 -0.2242 0.9746 138.3034 -71.321)" clip-path="url(#SVGID_4_)" fill="#2F9FD9" width="115.784" height="20.387"/>
		
			<rect x="321.579" y="659.584" transform="matrix(0.9701 0.2425 -0.2425 0.9701 173.2152 -67.5848)" clip-path="url(#SVGID_4_)" fill="#2F9FD9" width="79.093" height="20.387"/>
		
			<rect x="389.908" y="853.524" transform="matrix(0.3805 0.9248 -0.9248 0.3805 1072.1532 182.1731)" clip-path="url(#SVGID_4_)" fill="#2F9FD9" width="20.388" height="75.647"/>
		
			<rect x="414.552" y="925.085" transform="matrix(0.3452 0.9385 -0.9385 0.3452 1209.2738 251.0266)" clip-path="url(#SVGID_4_)" fill="#2F9FD9" width="20.385" height="134.053"/>
		
			<rect x="446.711" y="1023.873" transform="matrix(0.3311 0.9436 -0.9436 0.3311 1325.6552 291.9639)" clip-path="url(#SVGID_4_)" fill="#2F9FD9" width="20.386" height="114.2"/>
		
			<rect x="538.392" y="1331.681" transform="matrix(0.8179 0.5754 -0.5754 0.8179 894.8882 -64.0242)" clip-path="url(#SVGID_4_)" fill="#2F9FD9" width="20.389" height="100.021"/>
		
			<rect x="628.1" y="1378.852" transform="matrix(0.8448 0.5351 -0.5351 0.8448 869.1475 -118.1951)" clip-path="url(#SVGID_4_)" fill="#2F9FD9" width="20.387" height="120.21"/>
		
			<rect x="718.09" y="1443.261" transform="matrix(0.8825 0.4703 -0.4703 0.8825 778.7681 -169.3418)" clip-path="url(#SVGID_4_)" fill="#2F9FD9" width="20.386" height="61.186"/>
		
			<rect x="937.562" y="1473.842" transform="matrix(0.9996 0.0294 -0.0294 0.9996 44.5286 -27.1793)" clip-path="url(#SVGID_4_)" fill="#2F9FD9" width="20.389" height="57.657"/>
		
			<rect x="990.915" y="1494.492" transform="matrix(0.0051 1 -1 0.0051 2545.2266 451.054)" clip-path="url(#SVGID_4_)" fill="#2F9FD9" width="110.022" height="20.388"/>
		
			<rect x="1098.961" y="1499.289" transform="matrix(0.0057 1 -1 0.0057 2650.9146 352.7909)" clip-path="url(#SVGID_4_)" fill="#2F9FD9" width="98.171" height="20.387"/>
		<path clip-path="url(#SVGID_4_)" fill="#005D98" d="M1010.895,430.008c-21.292,0-38.613-17.321-38.613-38.613
			c0-21.29,17.322-38.612,38.613-38.612c21.289,0,38.612,17.322,38.612,38.612C1049.507,412.688,1032.184,430.008,1010.895,430.008
			 M1010.895,366.926c-13.494,0-24.47,10.977-24.47,24.469c0,13.493,10.976,24.47,24.47,24.47c13.492,0,24.469-10.977,24.469-24.47
			C1035.363,377.903,1024.387,366.926,1010.895,366.926"/>
		<path clip-path="url(#SVGID_4_)" fill="#005D98" d="M779.592,931.163c-21.291,0-38.613-17.321-38.613-38.613
			c0-21.29,17.322-38.612,38.613-38.612c21.29,0,38.613,17.322,38.613,38.612C818.205,913.842,800.882,931.163,779.592,931.163
			 M779.592,868.081c-13.493,0-24.469,10.978-24.469,24.469c0,13.493,10.976,24.47,24.469,24.47
			c13.493,0,24.469-10.977,24.469-24.47C804.061,879.059,793.085,868.081,779.592,868.081"/>
		<path clip-path="url(#SVGID_4_)" fill="#005D98" d="M1336.82,1355.218c-21.291,0-38.613-17.321-38.613-38.613
			c0-21.29,17.322-38.612,38.613-38.612s38.613,17.322,38.613,38.612C1375.434,1337.896,1358.111,1355.218,1336.82,1355.218
			 M1336.82,1292.136c-13.493,0-24.469,10.977-24.469,24.469c0,13.493,10.976,24.47,24.469,24.47s24.469-10.977,24.469-24.47
			C1361.289,1303.112,1350.313,1292.136,1336.82,1292.136"/>
		<path clip-path="url(#SVGID_4_)" fill="#005D98" d="M1294.766,1106.393c-21.291,0-38.613-17.321-38.613-38.613
			c0-21.29,17.322-38.612,38.613-38.612s38.612,17.322,38.612,38.612C1333.378,1089.071,1316.057,1106.393,1294.766,1106.393
			 M1294.766,1043.311c-13.493,0-24.47,10.977-24.47,24.469c0,13.493,10.977,24.47,24.47,24.47c13.492,0,24.469-10.977,24.469-24.47
			C1319.234,1054.287,1308.258,1043.311,1294.766,1043.311"/>
		<path clip-path="url(#SVGID_4_)" fill="#005D98" d="M1336.82,854.063c-21.291,0-38.613-17.321-38.613-38.613
			c0-21.29,17.322-38.612,38.613-38.612s38.613,17.322,38.613,38.612C1375.434,836.741,1358.111,854.063,1336.82,854.063
			 M1336.82,790.98c-13.493,0-24.469,10.977-24.469,24.469c0,13.493,10.976,24.47,24.469,24.47s24.469-10.977,24.469-24.47
			C1361.289,801.957,1350.313,790.98,1336.82,790.98"/>
		<path clip-path="url(#SVGID_4_)" fill="#005D98" d="M1094.889,825.709c-21.291,0-38.612-17.321-38.612-38.613
			c0-21.29,17.321-38.612,38.612-38.612c21.29,0,38.613,17.322,38.613,38.612C1133.502,808.388,1116.179,825.709,1094.889,825.709
			 M1094.889,762.627c-13.492,0-24.469,10.977-24.469,24.469c0,13.493,10.977,24.47,24.469,24.47c13.493,0,24.47-10.977,24.47-24.47
			C1119.358,773.604,1108.382,762.627,1094.889,762.627"/>
		<path clip-path="url(#SVGID_4_)" fill="#005D98" d="M1018.711,957.148c-21.292,0-38.613-17.321-38.613-38.613
			c0-21.29,17.322-38.612,38.613-38.612c21.289,0,38.612,17.322,38.612,38.612C1057.323,939.827,1040,957.148,1018.711,957.148
			 M1018.711,894.066c-13.493,0-24.47,10.977-24.47,24.469c0,13.493,10.977,24.47,24.47,24.47c13.492,0,24.469-10.977,24.469-24.47
			C1043.18,905.043,1032.203,894.066,1018.711,894.066"/>
		<path clip-path="url(#SVGID_4_)" fill="#005D98" d="M846.748,394.588c0,20.323-16.476,36.799-36.799,36.799
			c-20.323,0-36.797-16.476-36.797-36.799c0-20.323,16.474-36.798,36.797-36.798C830.272,357.79,846.748,374.265,846.748,394.588"/>
		<path clip-path="url(#SVGID_4_)" fill="#005D98" d="M809.95,433.154c-21.265,0-38.566-17.301-38.566-38.566
			c0-21.265,17.301-38.565,38.566-38.565c21.266,0,38.567,17.301,38.567,38.565C848.517,415.853,831.216,433.154,809.95,433.154
			 M809.95,359.558c-19.315,0-35.03,15.714-35.03,35.03c0,19.316,15.715,35.031,35.03,35.031c19.316,0,35.031-15.715,35.031-35.031
			C844.98,375.272,829.266,359.558,809.95,359.558"/>
		<path clip-path="url(#SVGID_4_)" fill="#005D98" d="M1018.473,646.918c0,20.323-16.477,36.798-36.798,36.798
			c-20.323,0-36.798-16.475-36.798-36.798s16.475-36.799,36.798-36.799C1001.996,610.119,1018.473,626.595,1018.473,646.918"/>
		<path clip-path="url(#SVGID_4_)" fill="#005D98" d="M981.674,685.484c-21.266,0-38.567-17.301-38.567-38.566
			c0-21.266,17.301-38.567,38.567-38.567c21.265,0,38.565,17.301,38.565,38.567C1020.239,668.184,1002.939,685.484,981.674,685.484
			 M981.674,611.888c-19.316,0-35.031,15.714-35.031,35.031c0,19.315,15.715,35.03,35.031,35.03c19.315,0,35.03-15.715,35.03-35.03
			C1016.704,627.602,1000.989,611.888,981.674,611.888"/>
		<path clip-path="url(#SVGID_4_)" fill="#005D98" d="M1165.665,1067.467c0,20.323-16.477,36.8-36.8,36.8
			c-20.322,0-36.797-16.477-36.797-36.8c0-20.322,16.475-36.798,36.797-36.798
			C1149.188,1030.669,1165.665,1047.145,1165.665,1067.467"/>
		<path clip-path="url(#SVGID_4_)" fill="#005D98" d="M1128.866,1106.033c-21.265,0-38.565-17.301-38.565-38.565
			c0-21.266,17.301-38.566,38.565-38.566c21.267,0,38.567,17.301,38.567,38.566
			C1167.434,1088.732,1150.133,1106.033,1128.866,1106.033 M1128.866,1032.438c-19.315,0-35.03,15.714-35.03,35.03
			c0,19.315,15.715,35.03,35.03,35.03c19.316,0,35.031-15.715,35.031-35.03C1163.897,1048.151,1148.183,1032.438,1128.866,1032.438"
			/>
		<path clip-path="url(#SVGID_4_)" fill="#005D98" d="M1095.572,1193.633c0,20.322-16.475,36.798-36.798,36.798
			c-20.322,0-36.797-16.476-36.797-36.798c0-20.323,16.475-36.799,36.797-36.799
			C1079.098,1156.834,1095.572,1173.31,1095.572,1193.633"/>
		<path clip-path="url(#SVGID_4_)" fill="#005D98" d="M1058.774,1232.197c-21.265,0-38.564-17.3-38.564-38.564
			c0-21.266,17.3-38.566,38.564-38.566c21.266,0,38.566,17.301,38.566,38.566C1097.341,1214.897,1080.04,1232.197,1058.774,1232.197
			 M1058.774,1158.603c-19.314,0-35.029,15.714-35.029,35.03c0,19.314,15.715,35.028,35.029,35.028
			c19.315,0,35.03-15.714,35.03-35.028C1093.805,1174.316,1078.09,1158.603,1058.774,1158.603"/>
		<path clip-path="url(#SVGID_4_)" fill="#005D98" d="M1165.665,1316.292c0,20.323-16.477,36.8-36.8,36.8
			c-20.322,0-36.797-16.477-36.797-36.8c0-20.322,16.475-36.798,36.797-36.798
			C1149.188,1279.494,1165.665,1295.97,1165.665,1316.292"/>
		<path clip-path="url(#SVGID_4_)" fill="#005D98" d="M1128.866,1354.858c-21.265,0-38.565-17.3-38.565-38.565
			s17.301-38.566,38.565-38.566c21.267,0,38.567,17.301,38.567,38.566S1150.133,1354.858,1128.866,1354.858 M1128.866,1281.263
			c-19.315,0-35.03,15.715-35.03,35.03s15.715,35.03,35.03,35.03c19.316,0,35.031-15.715,35.031-35.03
			S1148.183,1281.263,1128.866,1281.263"/>
		<path clip-path="url(#SVGID_4_)" fill="#005D98" d="M776.656,513.744c0,20.323-16.475,36.798-36.798,36.798
			c-20.323,0-36.798-16.475-36.798-36.798c0-20.323,16.475-36.799,36.798-36.799C760.181,476.945,776.656,493.421,776.656,513.744"
			/>
		<path clip-path="url(#SVGID_4_)" fill="#005D98" d="M739.858,552.311c-21.266,0-38.567-17.301-38.567-38.566
			c0-21.266,17.301-38.567,38.567-38.567c21.265,0,38.565,17.301,38.565,38.567C778.423,535.01,761.123,552.311,739.858,552.311
			 M739.858,478.713c-19.316,0-35.031,15.714-35.031,35.031c0,19.315,15.715,35.03,35.031,35.03c19.315,0,35.03-15.715,35.03-35.03
			C774.888,494.428,759.173,478.713,739.858,478.713"/>
		<path clip-path="url(#SVGID_4_)" fill="#005D98" d="M846.748,639.909c0,20.323-16.476,36.798-36.799,36.798
			c-20.323,0-36.797-16.475-36.797-36.798c0-20.323,16.474-36.799,36.797-36.799C830.272,603.11,846.748,619.586,846.748,639.909"/>
		<path clip-path="url(#SVGID_4_)" fill="#005D98" d="M809.95,678.476c-21.265,0-38.566-17.301-38.566-38.566
			c0-21.266,17.301-38.566,38.566-38.566c21.266,0,38.567,17.301,38.567,38.566C848.517,661.174,831.216,678.476,809.95,678.476
			 M809.95,604.878c-19.315,0-35.03,15.715-35.03,35.031s15.715,35.03,35.03,35.03c19.316,0,35.031-15.715,35.031-35.03
			S829.266,604.878,809.95,604.878"/>
		<defs>
			<filter id="Adobe_OpacityMaskFilter" filterUnits="userSpaceOnUse" x="705.289" y="365.208" width="604.904" height="978.252">
				
					<feColorMatrix  type="matrix" values="-1 0 0 0 1  0 -1 0 0 1  0 0 -1 0 1  0 0 0 1 0" color-interpolation-filters="sRGB" result="source"/>
				<feFlood  style="flood-color:white;flood-opacity:1" result="back"/>
				<feBlend  in="source" in2="back" mode="normal"/>
			</filter>
		</defs>
		<mask maskUnits="userSpaceOnUse" x="705.289" y="365.208" width="604.904" height="978.252" id="SVGID_5_">
			<g filter="url(#Adobe_OpacityMaskFilter)">
				<rect x="705.289" y="365.208" clip-path="url(#SVGID_4_)" width="604.904" height="978.252"/>
				<g enable-background="new    ">
					<g>
						<defs>
							<rect id="SVGID_6_" x="705.289" y="365.21" width="604.9" height="978.25"/>
						</defs>
						<clipPath id="SVGID_7_" clip-path="url(#SVGID_4_)">
							<use xlink:href="#SVGID_6_"  overflow="visible"/>
						</clipPath>
						
							<line clip-path="url(#SVGID_7_)" fill="none" stroke="#000000" stroke-miterlimit="10" x1="661.838" y1="513.744" x2="779.592" y2="327.046"/>
						
							<line clip-path="url(#SVGID_7_)" fill="none" stroke="#000000" stroke-miterlimit="10" x1="1067.398" y1="327.046" x2="1443.461" y2="748.483"/>
						
							<line clip-path="url(#SVGID_7_)" fill="none" stroke="#000000" stroke-miterlimit="10" x1="1012.844" y1="1367.452" x2="659.352" y2="918.536"/>
						<path clip-path="url(#SVGID_7_)" fill="#FFFFFF" d="M1124.364,786.563c0,15.73-12.752,28.483-28.483,28.483
							c-15.73,0-28.482-12.753-28.482-28.483c0-15.731,12.752-28.483,28.482-28.483
							C1111.612,758.081,1124.364,770.833,1124.364,786.563"/>
						<path clip-path="url(#SVGID_7_)" fill="#FFFFFF" d="M1045.594,918.372c0,15.731-12.753,28.483-28.483,28.483
							s-28.483-12.752-28.483-28.483s12.753-28.483,28.483-28.483S1045.594,902.641,1045.594,918.372"/>
					</g>
				</g>
			</g>
		</mask>
		<g clip-path="url(#SVGID_4_)" mask="url(#SVGID_5_)">
			<g>
				<defs>
					<rect id="SVGID_8_" x="705.289" y="365.21" width="604.9" height="978.25"/>
				</defs>
				<clipPath id="SVGID_9_">
					<use xlink:href="#SVGID_8_"  overflow="visible"/>
				</clipPath>
				<polygon clip-path="url(#SVGID_9_)" fill="#005D98" points="982.615,669.605 794.752,669.485 705.29,512.519 792.874,365.208 
					984.896,365.208 984.896,418.246 823.042,418.246 766.658,513.082 825.583,616.467 982.649,616.568 				"/>
				<polygon clip-path="url(#SVGID_9_)" fill="#005D98" points="1005.708,917.979 805.745,917.979 805.745,864.941 974.748,864.941 
					1027.726,771.127 968.068,669.627 810.144,669.854 810.068,616.816 998.39,616.545 1088.934,770.598 				"/>
				<polygon clip-path="url(#SVGID_9_)" fill="#005D98" points="1105.108,1079.729 1022.886,938.037 1109.373,789.51 
					1310.193,789.51 1310.193,842.548 1139.864,842.548 1084.233,938.083 1150.982,1053.11 				"/>
				<polygon clip-path="url(#SVGID_9_)" fill="#005D98" points="1309.604,1343.46 1111.521,1343.46 1022.586,1194.735 
					1112.594,1041.734 1268.352,1041.734 1268.352,1094.771 1142.927,1094.771 1084.25,1194.515 1141.601,1290.422 
					1309.604,1290.422 				"/>
			</g>
		</g>
	</g>
</g>
</svg>
